<svg width="23" height="22" viewBox="0 0 23 22" fill="none" xmlns="http://www.w3.org/2000/svg">
<rect x="0.5" y="1.5" width="9.875" height="2.34615" rx="1.17308" fill="#998729" stroke="black"/>
<rect x="0.5" y="4.84613" width="9.875" height="2.34615" rx="1.17308" fill="#998729" stroke="black"/>
<rect x="0.5" y="8.19232" width="9.875" height="2.34615" rx="1.17308" fill="#998729" stroke="black"/>
<rect x="0.5" y="11.5385" width="9.875" height="2.34615" rx="1.17308" fill="#998729" stroke="black"/>
<rect x="0.5" y="14.8846" width="9.875" height="2.34615" rx="1.17308" fill="#998729" stroke="black"/>
<rect x="0.5" y="18.2308" width="9.875" height="2.34615" rx="1.17308" fill="#998729" stroke="black"/>
<rect x="12.5" y="0.5" width="9.875" height="2.34615" rx="1.17308" fill="#998729" stroke="black"/>
<rect x="12.5" y="3.84613" width="9.875" height="2.34615" rx="1.17308" fill="#998729" stroke="black"/>
<rect x="12.5" y="7.19232" width="9.875" height="2.34615" rx="1.17308" fill="#998729" stroke="black"/>
<rect x="12.5" y="10.5385" width="9.875" height="2.34615" rx="1.17308" fill="#998729" stroke="black"/>
<rect x="12.5" y="13.8846" width="9.875" height="2.34615" rx="1.17308" fill="#998729" stroke="black"/>
<rect x="12.5" y="17.2308" width="9.875" height="2.34615" rx="1.17308" fill="#998729" stroke="black"/>
</svg>
