<svg width="162" height="162" viewBox="0 0 162 162" fill="none" xmlns="http://www.w3.org/2000/svg">
<rect x="50.7764" y="51.744" width="3.06609" height="80.868" transform="rotate(-41.068 50.7764 51.744)" fill="#454545"/>
<rect x="51.6897" y="109.917" width="3.06609" height="80.868" transform="rotate(-131.068 51.6897 109.917)" fill="#454545"/>
<rect x="54.8218" y="48.2191" width="3.06609" height="80.868" transform="rotate(-41.068 54.8218 48.2191)" fill="#454545"/>
<rect x="48.1412" y="105.892" width="3.06609" height="80.868" transform="rotate(-131.068 48.1412 105.892)" fill="#454545"/>
<rect x="40.1562" y="80.8039" width="3.06609" height="80.868" transform="rotate(-86.068 40.1562 80.8039)" fill="#454545"/>
<rect x="81.9364" y="121.292" width="3.06609" height="80.868" transform="rotate(-176.068 81.9364 121.292)" fill="#454545"/>
<rect x="40.5242" y="75.4509" width="3.06609" height="80.868" transform="rotate(-86.068 40.5242 75.4509)" fill="#454545"/>
<rect x="76.5813" y="120.956" width="3.06609" height="80.868" transform="rotate(-176.068 76.5813 120.956)" fill="#454545"/>
<circle cx="80.3923" cy="79.3143" r="11.8811" transform="rotate(-41.068 80.3923 79.3143)" fill="#454545"/>
<path fill-rule="evenodd" clip-rule="evenodd" d="M81.9471 122.764C105.76 122.764 125.064 103.46 125.064 79.6476C125.064 55.8348 105.76 36.5308 81.9471 36.5308C58.1344 36.5308 38.8303 55.8348 38.8303 79.6476C38.8303 103.46 58.1344 122.764 81.9471 122.764ZM81.5244 116.846C101.835 116.846 118.301 100.192 118.301 79.6476C118.301 59.1033 101.835 42.4488 81.5244 42.4488C61.2135 42.4488 44.7483 59.1033 44.7483 79.6476C44.7483 100.192 61.2135 116.846 81.5244 116.846Z" fill="#454545"/>
<path fill-rule="evenodd" clip-rule="evenodd" d="M82.1933 134.193C112.569 134.193 137.193 109.569 137.193 79.1932C137.193 48.8176 112.569 24.1932 82.1933 24.1932C51.8176 24.1932 27.1933 48.8176 27.1933 79.1932C27.1933 109.569 51.8176 134.193 82.1933 134.193ZM82.0209 122.406C105.455 122.406 124.453 103.195 124.453 79.4977C124.453 55.7999 105.455 36.5891 82.0209 36.5891C58.5865 36.5891 39.5891 55.7999 39.5891 79.4977C39.5891 103.195 58.5865 122.406 82.0209 122.406Z" fill="#2F2F2F"/>
</svg>
