<svg width="578" height="95" viewBox="0 0 578 95" fill="none" xmlns="http://www.w3.org/2000/svg">
<path d="M14.4999 32.5C15.6666 30.5 14.5 21.5 14.9999 15.5C15.6694 7.46559 88.4999 14 172 11L555.5 0H557C557 23.6 561.333 28.5 563 28L564.5 42L578 49.5V66.5L537.5 74L503.5 25.5L436 27L401.5 85.5L172 88.5L168.5 83.5L134 31.5H61.4999L38 94.5H15.9999H5.5L0 84.5L4 83.5L3 55.5L14.7661 43.5L14.4999 32.5Z" fill="url(#paint0_linear_415_33)"/>
<defs>
<linearGradient id="paint0_linear_415_33" x1="307.75" y1="0" x2="307.75" y2="88.5" gradientUnits="userSpaceOnUse">
<stop stop-color="#C7A470"/>
<stop offset="1" stop-color="#8C724B"/>
</linearGradient>
</defs>
</svg>
