<svg width="286" height="171" viewBox="0 0 286 171" fill="none" xmlns="http://www.w3.org/2000/svg">
<path d="M45.0042 156L43.0042 76C42.9142 72.4 44.3 69.8333 45.0042 69L73.0042 16.5C75.4042 8.5 86.3375 5.83333 91.0042 5.5L155.504 3.5C163.104 3.5 164.671 9.83333 164.504 13C166.004 55.5 169.104 142.7 169.504 151.5C169.904 160.3 162.671 166.833 159.004 168L56.5042 170C46.9042 171.6 44.8375 160.667 45.0042 156Z" stroke="black"/>
<path d="M177.004 155L170.504 12C170.231 6 175.391 4.16667 178.004 4L263.004 1C269.804 1.4 273.171 7.5 274.004 10.5L283.504 81L284.504 103.5C284.504 109.5 282.838 113 282.004 114L254.504 157.5C250.904 163.1 245.338 167.833 243.004 167.5H187.504C180.304 168.3 177.504 158.167 177.004 155Z" stroke="black"/>
<path d="M53.5 53.5L1 143.5" stroke="black"/>
<rect x="174.855" y="139.636" width="2.66969" height="2.89661" rx="0.75" transform="rotate(-2.92084 174.855 139.636)" fill="#424242" stroke="black" stroke-width="0.5"/>
<rect x="175.004" y="142.543" width="2.66969" height="2.89661" rx="0.75" transform="rotate(-2.92084 175.004 142.543)" fill="#424242" stroke="black" stroke-width="0.5"/>
<rect x="175.152" y="145.451" width="2.66969" height="2.89661" rx="0.75" transform="rotate(-2.92084 175.152 145.451)" fill="#424242" stroke="black" stroke-width="0.5"/>
<rect x="172.948" y="90.3892" width="2.34443" height="2.84986" rx="0.75" transform="rotate(-2.48676 172.948 90.3892)" fill="#424242" stroke="black" stroke-width="0.5"/>
<rect x="173.072" y="93.2578" width="2.34443" height="2.84986" rx="0.75" transform="rotate(-2.48676 173.072 93.2578)" fill="#424242" stroke="black" stroke-width="0.5"/>
<rect x="173.197" y="96.1264" width="2.34443" height="2.84986" rx="0.75" transform="rotate(-2.48676 173.197 96.1264)" fill="#424242" stroke="black" stroke-width="0.5"/>
<rect x="42.2606" y="95.3729" width="2.58797" height="2.85373" rx="0.75" transform="rotate(-2.48676 42.2606 95.3729)" fill="#424242" stroke="black" stroke-width="0.5"/>
<rect x="42.3854" y="98.2448" width="2.58797" height="2.85373" rx="0.75" transform="rotate(-2.48676 42.3854 98.2448)" fill="#424242" stroke="black" stroke-width="0.5"/>
<rect x="42.51" y="101.117" width="2.58797" height="2.85373" rx="0.75" transform="rotate(-2.48676 42.51 101.117)" fill="#424242" stroke="black" stroke-width="0.5"/>
<rect x="43.2606" y="139.38" width="2.75743" height="3.19858" rx="0.75" transform="rotate(-2.48676 43.2606 139.38)" fill="#424242" stroke="black" stroke-width="0.5"/>
<rect x="43.3982" y="142.547" width="2.75743" height="3.19858" rx="0.75" transform="rotate(-2.48676 43.3982 142.547)" fill="#424242" stroke="black" stroke-width="0.5"/>
<rect x="43.5358" y="145.715" width="2.75743" height="3.19858" rx="0.75" transform="rotate(-2.48676 43.5358 145.715)" fill="#424242" stroke="black" stroke-width="0.5"/>
</svg>
