<svg width="34" height="16" viewBox="0 0 34 16" fill="none" xmlns="http://www.w3.org/2000/svg">
<path d="M17.6672 6.5L30 7C36.8 11 31.0005 13 27.1672 14L14.1672 13.5C13.2678 13.2232 12.6845 12.8827 12.3521 12.5C12.1603 12.2792 12.052 12.0443 12.0148 11.7996L8.5 4.5L15.5 1L17.6672 6.5Z" fill="#7D7D7D"/>
<path d="M17.6672 6.5L30 7C36.8 11 31.0005 13 27.1672 14L14.1672 13.5C13.2678 13.2232 12.6845 12.8827 12.3521 12.5M17.6672 6.5L15.5 1L8.5 4.5L12.3521 12.5M17.6672 6.5C14.9104 7.87838 10.7629 10.6703 12.3521 12.5" stroke="black"/>
<path d="M33.5 10.5C33.5 11.3477 32.8942 12.2129 31.7017 12.8943C30.5233 13.5676 28.8621 14 27 14C25.1379 14 23.4767 13.5676 22.2983 12.8943C21.1058 12.2129 20.5 11.3477 20.5 10.5C20.5 9.65229 21.1058 8.78711 22.2983 8.10569C23.4767 7.43236 25.1379 7 27 7C28.8621 7 30.5233 7.43236 31.7017 8.10569C32.8942 8.78711 33.5 9.65229 33.5 10.5Z" fill="#3C3C3C" stroke="black"/>
<path d="M10.1672 7L22.5 7.5C29.3 11.5 23.5005 13.5 19.6672 14.5L6.6672 14C5.76776 13.7232 5.18446 13.3827 4.85209 13C4.66028 12.7792 4.55204 12.5443 4.51484 12.2996L1 5L8 1.5L10.1672 7Z" fill="#7D7D7D"/>
<path d="M10.1672 7L22.5 7.5C29.3 11.5 23.5005 13.5 19.6672 14.5L6.6672 14C5.76776 13.7232 5.18446 13.3827 4.85209 13M10.1672 7L8 1.5L1 5L4.85209 13M10.1672 7C7.41044 8.37838 3.26291 11.1703 4.85209 13" stroke="black"/>
<path d="M25.5 10.5C25.5 11.3477 24.8942 12.2129 23.7017 12.8943C22.5233 13.5676 20.8621 14 19 14C17.1379 14 15.4767 13.5676 14.2983 12.8943C13.1058 12.2129 12.5 11.3477 12.5 10.5C12.5 9.65229 13.1058 8.78711 14.2983 8.10569C15.4767 7.43236 17.1379 7 19 7C20.8621 7 22.5233 7.43236 23.7017 8.10569C24.8942 8.78711 25.5 9.65229 25.5 10.5Z" fill="#3C3C3C" stroke="black"/>
</svg>
