<svg width="137" height="137" viewBox="0 0 137 137" fill="none" xmlns="http://www.w3.org/2000/svg">
<rect x="28.5234" y="80.7036" width="3.06609" height="80.868" transform="rotate(-102.539 28.5234 80.7036)" fill="#454545"/>
<rect x="80.0685" y="107.685" width="3.06609" height="80.868" transform="rotate(167.461 80.0685 107.685)" fill="#454545"/>
<rect x="27.3585" y="75.4659" width="3.06609" height="80.868" transform="rotate(-102.539 27.3585 75.4659)" fill="#454545"/>
<rect x="74.8378" y="108.88" width="3.06609" height="80.868" transform="rotate(167.461 74.8378 108.88)" fill="#454545"/>
<rect x="48.9822" y="103.913" width="3.06609" height="80.868" transform="rotate(-147.539 48.9822 103.913)" fill="#454545"/>
<rect x="104.509" y="86.5442" width="3.06609" height="80.868" transform="rotate(122.461 104.509 86.5442)" fill="#454545"/>
<rect x="44.455" y="101.034" width="3.06609" height="80.868" transform="rotate(-147.539 44.455 101.034)" fill="#454545"/>
<rect x="101.655" y="91.0882" width="3.06609" height="80.868" transform="rotate(122.461 101.655 91.0882)" fill="#454545"/>
<circle cx="66.8907" cy="67.8517" r="11.8811" transform="rotate(-102.539 66.8907 67.8517)" fill="#454545"/>
<path fill-rule="evenodd" clip-rule="evenodd" d="M67.1168 111.234C90.9296 111.234 110.234 91.9296 110.234 68.1168C110.234 44.3041 90.9296 25 67.1168 25C43.3041 25 24 44.3041 24 68.1168C24 91.9296 43.3041 111.234 67.1168 111.234ZM66.6941 105.316C87.005 105.316 103.47 88.6612 103.47 68.1169C103.47 47.5725 87.005 30.918 66.6941 30.918C46.3832 30.918 29.918 47.5725 29.918 68.1169C29.918 88.6612 46.3832 105.316 66.6941 105.316Z" fill="#454545"/>
<path fill-rule="evenodd" clip-rule="evenodd" d="M67 123C97.3757 123 122 98.3757 122 68C122 37.6243 97.3757 13 67 13C36.6243 13 12 37.6243 12 68C12 98.3757 36.6243 123 67 123ZM66.8277 111.213C90.2621 111.213 109.259 92.0022 109.259 68.3044C109.259 44.6067 90.2621 25.3958 66.8277 25.3958C43.3932 25.3958 24.3958 44.6067 24.3958 68.3044C24.3958 92.0022 43.3932 111.213 66.8277 111.213Z" fill="#2F2F2F"/>
</svg>
