<svg width="576" height="203" viewBox="0 0 576 203" fill="none" xmlns="http://www.w3.org/2000/svg">
<path d="M560.376 125.673C557.928 69.7133 551.057 44.1935 547.928 38.4285C545.603 38.8137 540.999 41.6837 541.186 50.0816L543.854 80.0296L546.545 110.977L552.523 132.349L560.599 135.67L560.376 125.673Z" fill="#161616" stroke="black"/>
<path d="M50.5 100L173.5 85.5L221 12L533.5 0C544.7 42.4 552.167 75.6667 554.5 87C555 98.8333 556.1 123.6 556.5 128C556.9 132.4 559.333 135.167 560.5 136L562 150L575.5 156.5V175L566.5 186.5L556.5 187V189.5L553 190L551.5 192H537.5L508 139C506.4 136.2 502.333 134.5 500.5 134C483.167 134.333 446.9 135.1 440.5 135.5C434.1 135.9 429.5 141.333 428 144L398.5 199C329.5 199.833 189.5 201.5 181.5 201.5C173.5 201.5 169.167 197.167 168 195L139.5 149C130.5 133 116 136 89.5 136.5C68.3 136.9 63.3333 138 63.5 138.5C51.1 145.3 39.6667 184 35.5 202.5H32.5H3L1.5 194L0 162.5L12 151.5C12.1667 142.167 12.4 122.9 12 120.5C11.6 118.1 13.1667 117.167 14 117L21.5 114.5C21.1 108.1 40.6667 101.833 50.5 100Z" fill="#C7A470"/>
</svg>
