<svg width="519" height="73" viewBox="0 0 519 73" fill="none" xmlns="http://www.w3.org/2000/svg">
<path d="M25.0205 6.58056L2.05701 67.0806C1.06354 69.698 2.99708 72.5 5.79669 72.5H7.28318C8.92314 72.5 10.397 71.499 11.0015 69.9745L31.9985 17.0255C32.603 15.501 34.0769 14.5 35.7168 14.5H100.256C101.65 14.5 102.943 15.2257 103.67 16.4154L135.83 69.0846C136.557 70.2743 137.85 71 139.244 71H141.272C144.416 71 146.331 67.5395 144.661 64.8755L107.676 5.87546C106.944 4.70853 105.664 4 104.287 4H28.7602C27.0987 4 25.6101 5.02716 25.0205 6.58056Z" fill="#444444"/>
<path d="M399.881 2.16164L367.021 65.6616C365.643 68.3241 367.576 71.5 370.574 71.5H371.65C373.101 71.5 374.438 70.7146 375.144 69.4474L406.856 12.5526C407.562 11.2854 408.899 10.5 410.35 10.5H471.242C472.644 10.5 473.943 11.2333 474.667 12.433L505.833 64.067C506.557 65.2667 507.857 66 509.258 66H511.306C514.443 66 516.359 62.5538 514.704 59.8893L478.674 1.88927C477.944 0.714454 476.659 0 475.276 0H403.434C401.939 0 400.569 0.833796 399.881 2.16164Z" fill="#444444"/>
<rect x="135.573" y="64.449" width="240.79" height="8" rx="4" transform="rotate(-0.686654 135.573 64.449)" fill="#444444"/>
</svg>
